<svg width="16" height="14" viewBox="0 0 16 14" fill="none" xmlns="http://www.w3.org/2000/svg">
<path d="M9.77377 5.66955L9.77938 5.66574L9.75958 5.59624C9.716 5.4433 9.56376 5.32759 9.39866 5.34765C9.36742 5.34933 9.29216 5.35924 9.18987 5.38422C9.07373 5.41259 8.9173 5.46167 8.7405 5.54487C8.40518 5.70267 7.99684 5.98314 7.65235 6.47622C7.38737 6.30782 6.97301 6.15784 6.42628 6.2939C6.29031 6.31876 6.17459 6.43283 6.17095 6.59216C6.08068 7.23011 6.30815 7.84738 6.61275 8.35899C6.91303 8.86335 7.29462 9.27581 7.54636 9.52092C7.56224 9.55814 7.58019 9.59394 7.59518 9.62388L7.59544 9.62439C7.61072 9.65489 7.62146 9.67659 7.62797 9.69219C7.63616 9.86302 7.64797 10.0075 7.65983 10.1146C7.66593 10.1697 7.67212 10.2156 7.67797 10.2505C7.68088 10.2679 7.68386 10.2835 7.68691 10.2966C7.68841 10.3031 7.69062 10.3121 7.69387 10.3217C7.7243 10.4852 7.88296 10.5873 8.03086 10.5873H8.07899V10.5881L8.09157 10.5865C8.27293 10.5635 8.41313 10.3849 8.36899 10.1958L8.36828 10.1913L8.36462 10.1666C8.3615 10.1447 8.35712 10.112 8.35222 10.0699C8.34336 9.9937 8.33282 9.88657 8.32497 9.75584C8.56181 9.49716 9.19981 8.75679 9.52841 8.10027L9.52843 8.10028L9.52914 8.0988C9.81859 7.49601 9.87565 6.88277 9.86136 6.41677C9.8542 6.18341 9.82912 5.98591 9.80582 5.84363C9.79417 5.77245 9.78297 5.71513 9.77474 5.67433L9.77377 5.66955ZM6.98156 7.07855C6.9206 7.12214 6.88033 7.17844 6.85847 7.23966C6.83663 7.13848 6.82316 7.03683 6.81984 6.9354C6.9853 6.93501 7.11736 6.97419 7.21892 7.02463C7.14047 7.01588 7.0594 7.03343 6.99006 7.0731L6.98981 7.07265L6.98156 7.07855ZM8.8938 7.78795C8.75704 8.0572 8.55585 8.35207 8.35398 8.6132C8.44328 8.0776 8.62839 7.48304 9.00854 6.96328L9.00854 6.96329L9.00916 6.96241C9.11778 6.81052 9.09942 6.60217 8.93786 6.48665C8.82278 6.40436 8.67529 6.39495 8.56032 6.46549C8.76969 6.28693 8.97651 6.18318 9.13904 6.12276C9.20025 6.494 9.20787 7.1593 8.90212 7.7713L8.8938 7.78795ZM8.00851 7.17268C8.14734 6.90645 8.30776 6.7028 8.47025 6.54698C8.46773 6.55025 8.46524 6.55358 8.4628 6.55698C8.17335 6.94342 7.97535 7.36361 7.84113 7.77622C7.8618 7.57284 7.91443 7.36895 8.00851 7.17268Z" fill="#213F7D" stroke="#213F7D" stroke-width="0.2"/>
<path d="M4.45957 10.84C4.45957 11.0233 4.61622 11.18 4.79957 11.18C4.98292 11.18 5.13957 11.0233 5.13957 10.84V4.75996C5.13957 4.57661 4.98292 4.41996 4.79957 4.41996C4.61622 4.41996 4.45957 4.57661 4.45957 4.75996V10.84Z" fill="#213F7D" stroke="#213F7D" stroke-width="0.2"/>
<path d="M2.85996 10.84C2.85996 11.0233 3.01661 11.18 3.19996 11.18C3.38331 11.18 3.53996 11.0233 3.53996 10.84V4.75996C3.53996 4.57661 3.38331 4.41996 3.19996 4.41996C3.01661 4.41996 2.85996 4.57661 2.85996 4.75996V10.84Z" fill="#213F7D" stroke="#213F7D" stroke-width="0.2"/>
<path d="M10.86 10.84C10.86 11.0233 11.0166 11.18 11.2 11.18C11.3833 11.18 11.54 11.0233 11.54 10.84V4.75996C11.54 4.57661 11.3833 4.41996 11.2 4.41996C11.0166 4.41996 10.86 4.57661 10.86 4.75996V10.84Z" fill="#213F7D" stroke="#213F7D" stroke-width="0.2"/>
<path d="M12.4596 10.84C12.4596 11.0233 12.6162 11.18 12.7996 11.18C12.9829 11.18 13.1396 11.0233 13.1396 10.84V4.75996C13.1396 4.57661 12.9829 4.41996 12.7996 4.41996C12.6162 4.41996 12.4596 4.57661 12.4596 4.75996V10.84Z" fill="#213F7D" stroke="#213F7D" stroke-width="0.2"/>
<path d="M13.3598 4.29997H13.5819L13.5365 4.2487C13.6333 4.18871 13.701 4.0832 13.7146 3.97131L13.7154 3.9714V3.95926C13.7154 3.82907 13.6335 3.69696 13.5168 3.64602L8.18327 0.468415C8.08095 0.394686 7.94223 0.402528 7.8365 0.466077C7.83646 0.466102 7.83642 0.466126 7.83638 0.46615L2.47666 3.66598L2.4766 3.66587L2.47246 3.66863C2.35023 3.75011 2.27529 3.88563 2.31837 4.04569C2.34543 4.19237 2.48624 4.29997 2.63979 4.29997H13.3598ZM12.1188 3.61997H3.86561L7.9997 1.14837L12.1188 3.61997Z" fill="#213F7D" stroke="#213F7D" stroke-width="0.2"/>
<path d="M2.6399 11.98H13.3599C13.5433 11.98 13.6999 11.8233 13.6999 11.64C13.6999 11.4566 13.5433 11.3 13.3599 11.3H2.6399C2.45655 11.3 2.2999 11.4566 2.2999 11.64C2.2999 11.8233 2.45655 11.98 2.6399 11.98Z" fill="#213F7D" stroke="#213F7D" stroke-width="0.2"/>
<path d="M1.83961 12.78H14.1596C14.343 12.78 14.4996 12.6233 14.4996 12.44C14.4996 12.2566 14.343 12.1 14.1596 12.1H1.83961C1.65626 12.1 1.49961 12.2566 1.49961 12.44C1.49961 12.6233 1.65626 12.78 1.83961 12.78Z" fill="#213F7D" stroke="#213F7D" stroke-width="0.2"/>
<path d="M1.0398 13.5799H14.9598C15.1432 13.5799 15.2998 13.4233 15.2998 13.2399C15.2998 13.0566 15.1432 12.8999 14.9598 12.8999H1.0398C0.856451 12.8999 0.699805 13.0566 0.699805 13.2399C0.699805 13.4233 0.856451 13.5799 1.0398 13.5799Z" fill="#213F7D" stroke="#213F7D" stroke-width="0.2"/>
</svg>
