<svg width="16" height="18" viewBox="0 0 16 18" fill="none" xmlns="http://www.w3.org/2000/svg">
<path d="M15.6002 2.25C15.6002 1.52193 15.0002 0.934328 14.1059 0.534069C13.2049 0.130866 11.9713 -0.1 10.6248 -0.1C9.27857 -0.1 8.04511 0.130867 7.14429 0.534071C6.25004 0.93433 5.65 1.52193 5.65 2.25C5.65 2.97807 6.25004 3.56567 7.14429 3.96593C8.04511 4.36913 9.27857 4.6 10.6248 4.6C11.9713 4.6 13.2049 4.36913 14.1059 3.96593C15.0002 3.56567 15.6002 2.97807 15.6002 2.25ZM6.60024 2.25C6.60024 2.10802 6.68874 1.94724 6.88614 1.78025C7.08165 1.61485 7.37054 1.45542 7.7363 1.31648C8.46698 1.03894 9.48577 0.85024 10.6248 0.85024C11.7637 0.85024 12.7827 1.03894 13.5136 1.31649C13.8794 1.45543 14.1684 1.61487 14.364 1.78027C14.5615 1.94727 14.65 2.10804 14.65 2.25C14.65 2.39196 14.5615 2.55273 14.364 2.71974C14.1684 2.88513 13.8794 3.04457 13.5136 3.18351C12.7827 3.46106 11.7637 3.64976 10.6248 3.64976C9.48577 3.64976 8.46698 3.46106 7.7363 3.18351C7.37054 3.04457 7.08165 2.88514 6.88614 2.71975C6.68874 2.55275 6.60024 2.39198 6.60024 2.25Z" fill="#FF3366" stroke="#FF3366" stroke-width="0.2"/>
<path d="M15.6002 2.25V2.15H15.5002H14.75H14.65V2.25V4.5C14.65 4.64197 14.5615 4.80274 14.364 4.96974C14.1684 5.13514 13.8794 5.29458 13.5136 5.43352C12.7827 5.71106 11.7637 5.89976 10.6248 5.89976C9.48577 5.89976 8.46698 5.71106 7.7363 5.43351C7.37054 5.29457 7.08165 5.13514 6.88614 4.96975C6.68874 4.80275 6.60024 4.64198 6.60024 4.5V2.25V2.15H6.50024H5.75H5.65V2.25V4.5C5.65 5.22807 6.25004 5.81567 7.14429 6.21593C8.04511 6.61913 9.27857 6.85 10.6248 6.85C11.9713 6.85 13.2049 6.61913 14.1059 6.21593C15.0002 5.81567 15.6002 5.22807 15.6002 4.5V2.25Z" fill="#FF3366" stroke="#FF3366" stroke-width="0.2"/>
<path d="M5.65 6.75702V6.83833L5.7296 6.85491L5.72961 6.85491L5.73796 6.85665L5.74649 6.85695C6.00336 6.866 6.2532 6.8848 6.49323 6.91193L6.62051 6.92632L6.60358 6.79935C6.60133 6.78244 6.60024 6.76647 6.60024 6.74998V4.49998V4.39998H6.50024H5.75H5.65V4.49998V6.74998V6.75702ZM9.50147 8.94541L9.50453 9.04459C9.86508 9.08079 10.2404 9.09994 10.6248 9.09994C11.9713 9.09994 13.2049 8.86907 14.1059 8.46587C15.0002 8.06561 15.6002 7.47801 15.6002 6.74994V4.49994V4.39994H15.5002H14.75H14.65V4.49994V6.74994C14.65 6.89191 14.5615 7.05268 14.364 7.21968C14.1684 7.38508 13.8794 7.54452 13.5136 7.68345C12.7827 7.961 11.7637 8.1497 10.6248 8.1497C10.2361 8.1497 9.8616 8.12811 9.50685 8.08776L9.37949 8.07328L9.39643 8.20034C9.39867 8.21716 9.39977 8.23384 9.39977 8.2497C9.39977 8.31385 9.40544 8.56946 9.41456 8.9475L9.50147 8.94541Z" fill="#FF3366" stroke="#FF3366" stroke-width="0.2"/>
<path d="M9.4708 11.1525L9.30938 11.2763L9.56264 11.3004C9.90546 11.3331 10.2609 11.3501 10.6247 11.3501C11.9712 11.3501 13.2049 11.1192 14.1058 10.716C15.0001 10.3158 15.6002 9.72816 15.6002 9.00009V6.75009V6.65009H15.5002H14.7499H14.6499V6.75009V9.00009C14.6499 9.14206 14.5614 9.30283 14.3639 9.46984C14.1684 9.63523 13.8794 9.79467 13.5135 9.93361C12.7827 10.2112 11.7637 10.3999 10.6247 10.3999C10.257 10.3999 9.90052 10.3803 9.56311 10.3442L9.44952 10.332L9.45248 10.4462C9.45444 10.5218 9.4564 10.5983 9.45838 10.6757C9.46238 10.8316 9.46646 10.9909 9.4708 11.1525ZM6.48926 6.91133L6.60024 6.92359V6.81194V6.75006V6.65006H6.50024H5.75H5.65V6.75006V6.75709V6.85361L5.74646 6.85703C6.0019 6.86608 6.24972 6.88487 6.48926 6.91133Z" fill="#FF3366" stroke="#FF3366" stroke-width="0.2"/>
<path d="M10.3502 9C10.3502 8.27193 9.75019 7.68433 8.85595 7.28407C7.95513 6.88087 6.72166 6.65 5.37548 6.65C4.02894 6.65 2.79529 6.88087 1.89438 7.28407C1.00005 7.68433 0.4 8.27193 0.4 9C0.4 9.72807 1.00005 10.3157 1.89438 10.7159C2.79529 11.1191 4.02894 11.35 5.37548 11.35C6.72166 11.35 7.95513 11.1191 8.85595 10.7159C9.75019 10.3157 10.3502 9.72807 10.3502 9ZM1.35024 9C1.35024 8.85803 1.43876 8.69726 1.63624 8.53026C1.83182 8.36486 2.1208 8.20542 2.48666 8.06648C3.21752 7.78894 4.23649 7.60024 5.37548 7.60024C6.51447 7.60024 7.53326 7.78894 8.26394 8.06649C8.6297 8.20543 8.91859 8.36486 9.1141 8.53025C9.3115 8.69725 9.4 8.85802 9.4 9C9.4 9.14198 9.3115 9.30275 9.1141 9.46975C8.91859 9.63514 8.6297 9.79457 8.26394 9.93351C7.53326 10.2111 6.51447 10.3998 5.37548 10.3998C4.23649 10.3998 3.21752 10.2111 2.48666 9.93351C2.1208 9.79457 1.83182 9.63513 1.63624 9.46974C1.43876 9.30273 1.35024 9.14196 1.35024 9Z" fill="#FF3366" stroke="#FF3366" stroke-width="0.2"/>
<path d="M10.3502 9V8.9H10.2502H9.5H9.4V9V11.25C9.4 11.392 9.3115 11.5528 9.1141 11.7198C8.91859 11.8851 8.6297 12.0446 8.26394 12.1835C7.53326 12.4611 6.51447 12.6498 5.37548 12.6498C4.23649 12.6498 3.21752 12.4611 2.48666 12.1835C2.1208 12.0446 1.83182 11.8851 1.63624 11.7197C1.43876 11.5527 1.35024 11.392 1.35024 11.25V9V8.9H1.25024H0.5H0.4V9V11.25C0.4 11.9781 1.00005 12.5657 1.89438 12.9659C2.79529 13.3691 4.02894 13.6 5.37548 13.6C6.72166 13.6 7.95513 13.3691 8.85595 12.9659C9.75019 12.5657 10.3502 11.9781 10.3502 11.25V9Z" fill="#FF3366" stroke="#FF3366" stroke-width="0.2"/>
<path d="M10.3502 11.25V11.15H10.2502H9.5H9.4V11.25V13.5C9.4 13.642 9.3115 13.8028 9.1141 13.9698C8.91859 14.1351 8.6297 14.2946 8.26394 14.4335C7.53326 14.7111 6.51447 14.8998 5.37548 14.8998C4.23649 14.8998 3.21752 14.7111 2.48666 14.4335C2.1208 14.2946 1.83182 14.1351 1.63624 13.9697C1.43876 13.8027 1.35024 13.642 1.35024 13.5V11.25V11.15H1.25024H0.5H0.4V11.25V13.5C0.4 14.2281 1.00005 14.8157 1.89438 15.2159C2.79529 15.6191 4.02894 15.85 5.37548 15.85C6.72166 15.85 7.95513 15.6191 8.85595 15.2159C9.75019 14.8157 10.3502 14.2281 10.3502 13.5V11.25Z" fill="#FF3366" stroke="#FF3366" stroke-width="0.2"/>
<path d="M10.3502 13.5V13.4H10.2502H9.5H9.4V13.5V15.75C9.4 15.892 9.3115 16.0528 9.1141 16.2198C8.91859 16.3851 8.6297 16.5446 8.26394 16.6835C7.53326 16.9611 6.51447 17.1498 5.37548 17.1498C4.23649 17.1498 3.21752 16.9611 2.48666 16.6835C2.1208 16.5446 1.83182 16.3851 1.63624 16.2197C1.43876 16.0527 1.35024 15.892 1.35024 15.75V13.5V13.4H1.25024H0.5H0.4V13.5V15.75C0.4 16.4781 1.00005 17.0657 1.89438 17.4659C2.79529 17.8691 4.02894 18.1 5.37548 18.1C6.72166 18.1 7.95513 17.8691 8.85595 17.4659C9.75019 17.0657 10.3502 16.4781 10.3502 15.75V13.5Z" fill="#FF3366" stroke="#FF3366" stroke-width="0.2"/>
<path d="M9.53952 13.4945L9.56261 13.5506L9.62306 13.556C9.94746 13.5851 10.2823 13.6 10.6248 13.6C11.9713 13.6 13.205 13.3692 14.1059 12.966C15.0002 12.5657 15.6003 11.9781 15.6003 11.25V9.00003V8.90003H15.5003H14.7501H14.6501V9.00003V11.25C14.6501 11.392 14.5615 11.5528 14.364 11.7198C14.1685 11.8852 13.8795 12.0446 13.5136 12.1835C12.7828 12.4611 11.7638 12.6498 10.6248 12.6498C10.278 12.6498 9.9424 12.6324 9.62225 12.6004L9.50957 12.5891L9.51233 12.7023C9.51648 12.8717 9.52093 13.0392 9.52528 13.203C9.52757 13.2894 9.52984 13.3748 9.53203 13.459L9.5325 13.4774L9.53952 13.4945L9.53952 13.4945Z" fill="#FF3366" stroke="#FF3366" stroke-width="0.2"/>
<path d="M9.59916 15.7459L9.62096 15.8065L9.68511 15.8117C9.98939 15.8365 10.3043 15.85 10.6249 15.85C11.9714 15.85 13.2051 15.6191 14.106 15.2159C15.0003 14.8157 15.6004 14.2281 15.6004 13.5V11.25V11.15H15.5004H14.7501H14.6501V11.25V13.5C14.6501 13.642 14.5616 13.8027 14.3641 13.9697C14.1685 14.1351 13.8796 14.2946 13.5137 14.4335C12.7829 14.7111 11.7639 14.8998 10.6249 14.8998C10.2997 14.8998 9.98427 14.8844 9.68226 14.8559L9.56982 14.8453L9.57289 14.9582C9.57804 15.1476 9.58236 15.3097 9.58576 15.4372C9.58931 15.5703 9.59185 15.6657 9.59328 15.7149L9.59375 15.7309L9.59915 15.7459L9.59916 15.7459Z" fill="#FF3366" stroke="#FF3366" stroke-width="0.2"/>
</svg>
