<svg width="11" height="3" viewBox="0 0 11 3" fill="none" xmlns="http://www.w3.org/2000/svg">
<path opacity="0.6" d="M1.128 0.0799999C1.43733 0.0799999 1.688 0.176 1.88 0.368C2.072 0.56 2.168 0.810667 2.168 1.12C2.168 1.42933 2.072 1.68 1.88 1.872C1.688 2.064 1.43733 2.16 1.128 2.16C0.818667 2.16 0.568 2.064 0.376 1.872C0.184 1.68 0.0880001 1.42933 0.0880001 1.12C0.0880001 0.810667 0.184 0.56 0.376 0.368C0.568 0.176 0.818667 0.0799999 1.128 0.0799999ZM5.378 0.0799999C5.68733 0.0799999 5.938 0.176 6.13 0.368C6.322 0.56 6.418 0.810667 6.418 1.12C6.418 1.42933 6.322 1.68 6.13 1.872C5.938 2.064 5.68733 2.16 5.378 2.16C5.06867 2.16 4.818 2.064 4.626 1.872C4.434 1.68 4.338 1.42933 4.338 1.12C4.338 0.810667 4.434 0.56 4.626 0.368C4.818 0.176 5.06867 0.0799999 5.378 0.0799999ZM9.628 0.0799999C9.93733 0.0799999 10.188 0.176 10.38 0.368C10.572 0.56 10.668 0.810667 10.668 1.12C10.668 1.42933 10.572 1.68 10.38 1.872C10.188 2.064 9.93733 2.16 9.628 2.16C9.31867 2.16 9.068 2.064 8.876 1.872C8.684 1.68 8.588 1.42933 8.588 1.12C8.588 0.810667 8.684 0.56 8.876 0.368C9.068 0.176 9.31867 0.0799999 9.628 0.0799999Z" fill="#545F7D"/>
</svg>
